#!OML:ASF F:\VICON\USERDATA\INSTALL\rory3\rory3.ASF
:FULLY-SPECIFIED
:DEGREES
604
root -2.83509 29.9514 -7.48688 -175.458 0.0360641 183.133
lowerback 8.70427 0.441989 -3.15055
upperback 0.925975 0.347686 -1.15663
thorax -3.93016 0.26086 0.527376
lowerneck -9.20176 2.22949 -6.06247
upperneck 27.6097 0.838596 5.31969
head 10.2009 -0.416807 2.89124
rclavicle -8.94531e-015 -2.38542e-014
rhumerus -33.2428 4.23527 -82.0119
rradius 46.1507
rwrist 12.5016
rhand -30.2681 6.82146
rfingers 7.12502
rthumb -3.5764 -23.1283
lclavicle -8.94531e-015 -2.38542e-014
lhumerus -24.9662 10.7286 78.8234
lradius 25.9041
lwrist 3.06203
lhand -30.2133 19.3384
lfingers 7.12502
lthumb -3.52346 49.289
rfemur -12.0243 9.99459 21.6764
rtibia 38.5339
rfoot -23.7033 -19.0154
rtoes -4.54583
lfemur -16.6464 -0.79905 -22.5612
ltibia 25.9223
lfoot -17.1315 14.4077
ltoes 9.42794
605
root -2.82735 29.9528 -7.50213 -175.57 -0.14006 183.169
lowerback 8.72952 0.577019 -3.12564
upperback 0.922007 0.304802 -1.19821
thorax -3.95173 0.144727 0.481611
lowerneck -9.08907 2.18487 -5.94884
upperneck 27.3723 0.790171 5.30614
head 10.0969 -0.414765 2.85689
rclavicle 3.77691e-015 5.48646e-014
rhumerus -33.2697 3.89763 -82.0391
rradius 46.0707
rwrist 12.7971
rhand -30.1067 6.48308
rfingers 7.12502
rthumb -3.42045 -23.4692
lclavicle 3.77691e-015 5.48646e-014
lhumerus -24.9492 10.6896 78.6947
lradius 25.5213
lwrist 2.82574
lhand -30.0814 19.3218
lfingers 7.12502
lthumb -3.39609 49.2745
rfemur -11.8359 10.479 21.6018
rtibia 37.62
rfoot -23.8717 -18.8919
rtoes -4.69318
lfemur -16.3508 -1.09606 -22.4705
ltibia 25.7303
lfoot -17.3345 14.4682
ltoes 9.42756
606
root -2.81895 29.9573 -7.51266 -175.658 -0.278087 183.026
lowerback 8.73832 0.580592 -3.35684
upperback 0.915853 0.281194 -1.24876
thorax -3.96355 0.135126 0.561767
lowerneck -9.1402 2.17822 -6.12257
upperneck 27.3524 0.749348 5.5988
head 10.097 -0.41543 2.98767
rclavicle 2.98177e-015 1.11319e-014
rhumerus -33.2485 3.65091 -82.0235
rradius 45.9327
rwrist 13.1164
rhand -30.15 6.54837
rfingers 7.12502
rthumb -3.46231 -23.4033
lclavicle 2.98177e-015 1.11319e-014
lhumerus -24.9257 10.7331 78.5805
lradius 25.1026
lwrist 2.50953
lhand -30.2169 19.4195
lfingers 7.12502
lthumb -3.52695 49.3701
rfemur -11.76 11.049 21.3288
rtibia 36.7994
rfoot -23.9684 -18.8965
rtoes -4.57586
lfemur -16.1026 -1.3578 -22.5754
ltibia 25.543
lfoot -17.4938 14.4878
ltoes 9.61793
607
root -2.81132 29.9612 -7.51979 -175.645 -0.47058 182.97
lowerback 8.65481 0.547235 -3.44954
upperback 0.889333 0.23094 -1.27406
thorax -3.94311 0.111933 0.593884
lowerneck -9.15743 2.18077 -6.29807
upperneck 27.3357 0.755782 5.75076
head 10.0903 -0.411263 3.07318
rclavicle -1.78906e-015 4.6118e-014
rhumerus -33.2423 3.52506 -82.0196
rradius 45.7744
rwrist 13.1106
rhand -30.2464 6.57281
rfingers 7.12502
rthumb -3.55543 -23.3773
lclavicle -1.78906e-015 4.6118e-014
lhumerus -24.995 10.72 78.4764
lradius 24.8933
lwrist 2.23074
lhand -30.6805 19.3947
lfingers 7.12502
lthumb -3.97459 49.3374
rfemur -11.8444 11.6586 21.1381
rtibia 36.0875
rfoot -24.1067 -19.0275
rtoes -4.19724
lfemur -15.9607 -1.68295 -22.5837
ltibia 25.2947
lfoot -17.49 14.6042
ltoes 9.77702
608
root -2.80791 29.9627 -7.52675 -175.664 -0.721424 182.911
lowerback 8.62244 0.501316 -3.45175
upperback 0.863285 0.167673 -1.33342
thorax -3.94973 0.0804491 0.54114
lowerneck -8.99219 2.1945 -6.24651
upperneck 27.1682 0.802151 5.66011
head 9.99565 -0.388215 3.03174
rclavicle -9.93923e-016 -3.65764e-014
rhumerus -33.2686 3.39331 -82.0631
rradius 45.6263
rwrist 12.9942
rhand -30.5922 6.86415
rfingers 7.12502
rthumb -3.8893 -23.0801
lclavicle -9.93923e-016 -3.65764e-014
lhumerus -25.0243 10.8188 78.334
lradius 24.6436
lwrist 1.87297
lhand -31.3429 18.5629
lfingers 7.12502
lthumb -4.61429 48.4926
rfemur -11.8906 12.1496 20.9217
rtibia 35.4458
rfoot -24.1899 -19.1253
rtoes -3.85013
lfemur -15.7792 -1.97922 -22.6248
ltibia 25.0465
lfoot -17.4261 14.6771
ltoes 9.92253
609
root -2.8044 29.9643 -7.53754 -175.799 -0.948047 182.727
lowerback 8.68922 0.495505 -3.59079
upperback 0.876146 0.133484 -1.42779
thorax -3.97298 0.0625846 0.525234
lowerneck -8.9066 2.16802 -6.12692
upperneck 27.1036 0.774502 5.54543
head 9.96025 -0.399175 2.96518
rclavicle 4.96962e-015 -1.66979e-014
rhumerus -33.3085 3.20224 -82.0961
rradius 45.5054
rwrist 12.8847
rhand -30.9373 7.25373
rfingers 7.12502
rthumb -4.22258 -22.6842
lclavicle 4.96962e-015 -1.66979e-014
lhumerus -24.9406 11.0212 78.1853
lradius 24.1599
lwrist 1.46398
lhand -31.6461 17.536
lfingers 7.12502
lthumb -4.90697 47.4592
rfemur -11.7956 12.56 20.5786
rtibia 34.8472
rfoot -24.378 -19.1087
rtoes -3.77336
lfemur -15.4894 -2.18829 -22.8167
ltibia 24.8638
lfoot -17.3747 14.7257
ltoes 9.45545
610
root -2.79815 29.9651 -7.54951 -175.925 -1.06503 182.64
lowerback 8.72613 0.521305 -3.71243
upperback 0.891207 0.149703 -1.45989
thorax -3.97902 0.0707314 0.558173
lowerneck -8.94867 2.13164 -6.11612
upperneck 27.1384 0.729032 5.52292
head 9.98475 -0.421197 2.95191
rclavicle -1.98785e-015 -3.4191e-014
rhumerus -33.3111 2.99323 -82.0692
rradius 45.3275
rwrist 12.9427
rhand -30.6064 6.77034
rfingers 7.12502
rthumb -3.90308 -23.1737
lclavicle -1.98785e-015 -3.4191e-014
lhumerus -24.8022 11.2907 78.0485
lradius 23.543
lwrist 0.948627
lhand -31.5479 17.4794
lfingers 7.12502
lthumb -4.8122 47.4048
rfemur -11.7678 13.1039 20.3522
rtibia 34.3198
rfoot -24.4947 -19.1545
rtoes -3.58482
lfemur -15.21 -2.46647 -22.8841
ltibia 24.6984
lfoot -17.4836 14.8554
ltoes 9.27167
611
root -2.79192 29.9655 -7.55947 -175.984 -1.18873 182.712
lowerback 8.69721 0.536814 -3.66539
upperback 0.902962 0.178764 -1.43952
thorax -3.95149 0.0844945 0.549602
lowerneck -9.03985 2.08137 -6.18068
upperneck 27.2064 0.68158 5.49695
head 10.0306 -0.452005 2.95153
rclavicle 1.39149e-015 3.18055e-015
rhumerus -33.3199 2.81333 -82.0574
rradius 45.1573
rwrist 12.8213
rhand -30.3106 6.18618
rfingers 7.12502
rthumb -3.61736 -23.7629
lclavicle 1.39149e-015 3.18055e-015
lhumerus -24.6479 11.6949 77.9272
lradius 23.0193
lwrist 0.307293
lhand -31.2913 18.8419
lfingers 7.12502
lthumb -4.56444 48.7727
rfemur -11.8789 13.6714 20.2854
rtibia 33.8897
rfoot -24.5495 -19.2692
rtoes -3.21427
lfemur -15.0131 -2.78033 -22.7714
ltibia 24.5008
lfoot -17.4682 15.066
ltoes 8.94322
612
root -2.78567 29.9669 -7.56727 -176.042 -1.34364 182.664
lowerback 8.6882 0.535165 -3.72879
upperback 0.902961 0.168538 -1.46444
thorax -3.94633 0.079611 0.5606
lowerneck -9.05623 2.0432 -6.23083
upperneck 27.2099 0.65002 5.46799
head 10.0375 -0.473266 2.94707
rclavicle 1.59028e-015 -2.70347e-014
rhumerus -33.3505 2.71762 -82.1348
rradius 44.9308
rwrist 12.5282
rhand -30.2527 5.90714
rfingers 7.12502
rthumb -3.56146 -24.0429
lclavicle 1.59028e-015 -2.70347e-014
lhumerus -24.6669 12.0555 77.7512
lradius 22.7516
lwrist -0.315667
lhand -30.836 19.4889
lfingers 7.12502
lthumb -4.12478 49.4287
rfemur -12.0528 14.1947 20.069
rtibia 33.5668
rfoot -24.6542 -19.2648
rtoes -2.85405
lfemur -14.8062 -3.15047 -22.7903
ltibia 24.2755
lfoot -17.5489 15.236
ltoes 9.38972
